<svg width="16" height="16" viewBox="0 0 16 16" fill="none" xmlns="http://www.w3.org/2000/svg"><path opacity="0.4" fill-rule="evenodd" clip-rule="evenodd" d="M8 3H3L3 13H13V8H14V13C14 13.5523 13.5523 14 13 14H3C2.44772 14 2 13.5523 2 13V3C2 2.44772 2.44772 2 3 2H8V3ZM8 4.75C8 5.16421 7.66421 5.5 7.25 5.5C6.83579 5.5 6.5 5.16421 6.5 4.75C6.5 4.33579 6.83579 4 7.25 4C7.66421 4 8 4.33579 8 4.75ZM4.75 5.5C5.16421 5.5 5.5 5.16421 5.5 4.75C5.5 4.33579 5.16421 4 4.75 4C4.33579 4 4 4.33579 4 4.75C4 5.16421 4.33579 5.5 4.75 5.5Z" fill="currentColor"></path><path fill-rule="evenodd" clip-rule="evenodd" d="M12 6.5C13.3807 6.5 14.5 5.38071 14.5 4C14.5 2.61929 13.3807 1.5 12 1.5C10.6193 1.5 9.5 2.61929 9.5 4C9.5 4.50954 9.65244 4.98348 9.9142 5.3787L6.14645 9.14645C5.95118 9.34171 5.95118 9.65829 6.14645 9.85355C6.34171 10.0488 6.65829 10.0488 6.85355 9.85355L10.6213 6.0858C11.0165 6.34756 11.4905 6.5 12 6.5Z" fill="white"></path></svg>