<svg width="16" height="16" viewBox="0 0 16 16" fill="none" xmlns="http://www.w3.org/2000/svg"><path fill-rule="evenodd" clip-rule="evenodd" d="M11 2H9V3H11V8H12V3H14V2H11ZM3 9H2V14H3V12H8V11H3V9ZM14 10C14 9.44772 13.5523 9 13 9H10C9.44772 9 9 9.44772 9 10V13C9 13.5523 9.44772 14 10 14H13C13.5523 14 14 13.5523 14 13V10Z" fill="currentColor"></path><path opacity="0.4" fill-rule="evenodd" clip-rule="evenodd" d="M8 3V2H3C2.44772 2 2 2.44772 2 3V8H3V3H8ZM5.5 4.75C5.5 5.16421 5.16421 5.5 4.75 5.5C4.33579 5.5 4 5.16421 4 4.75C4 4.33579 4.33579 4 4.75 4C5.16421 4 5.5 4.33579 5.5 4.75ZM7.25 5.5C7.66421 5.5 8 5.16421 8 4.75C8 4.33579 7.66421 4 7.25 4C6.83579 4 6.5 4.33579 6.5 4.75C6.5 5.16421 6.83579 5.5 7.25 5.5Z" fill="white"></path></svg>