<svg width="136" height="136" viewBox="0 0 136 136" fill="none" xmlns="http://www.w3.org/2000/svg">
<path d="M68 134C104.451 134 134 104.451 134 68C134 31.5492 104.451 2 68 2C31.5492 2 2 31.5492 2 68C2 104.451 31.5492 134 68 134Z" stroke="url(#paint0_linear_57_445)" stroke-width="3.16" stroke-linecap="round" stroke-linejoin="round"/>
<g clip-path="url(#clip0_57_445)">
<path d="M62.666 101C69.0752 102.053 75.6525 101.21 81.5894 98.5762C87.5264 95.942 92.5645 91.6307 96.0845 86.172C99.6045 80.7134 101.453 74.3453 101.403 67.8504C101.353 61.3555 99.4064 55.0166 95.8027 49.6129" stroke="url(#paint1_linear_57_445)" stroke-width="4.57143" stroke-linecap="round" stroke-linejoin="round"/>
<path d="M73 34.9999C66.6171 34.0252 60.0884 34.9253 54.2073 37.5909C48.3262 40.2565 43.3459 44.5729 39.8715 50.0155C36.3972 55.458 34.5784 61.7926 34.6361 68.2493C34.6938 74.706 36.6256 81.007 40.1967 86.3866" stroke="url(#paint2_linear_57_445)" stroke-width="4.57143" stroke-linecap="round" stroke-linejoin="round"/>
<g filter="url(#filter0_f_57_445)">
<circle cx="95.428" cy="52" r="9.14286" fill="#070C14"/>
</g>
<g filter="url(#filter1_f_57_445)">
<circle cx="37.1429" cy="85.1429" r="9.14286" fill="#070C14"/>
</g>
<path d="M68 78C73.5228 78 78 73.5228 78 68C78 62.4772 73.5228 58 68 58C62.4772 58 58 62.4772 58 68C58 73.5228 62.4772 78 68 78Z" fill="white" stroke="white" stroke-width="5" stroke-linecap="round" stroke-linejoin="round"/>
<path d="M91.3327 51.3333C95.0146 51.3333 97.9993 48.3486 97.9993 44.6667C97.9993 40.9848 95.0146 38 91.3327 38C87.6508 38 84.666 40.9848 84.666 44.6667C84.666 48.3486 87.6508 51.3333 91.3327 51.3333Z" fill="white" stroke="white" stroke-linecap="round" stroke-linejoin="round"/>
<path d="M44.6667 98.0001C48.3486 98.0001 51.3333 95.0153 51.3333 91.3334C51.3333 87.6515 48.3486 84.6667 44.6667 84.6667C40.9848 84.6667 38 87.6515 38 91.3334C38 95.0153 40.9848 98.0001 44.6667 98.0001Z" fill="white" stroke="white" stroke-linecap="round" stroke-linejoin="round"/>
</g>
<defs>
<filter id="filter0_f_57_445" x="81.7137" y="38.2857" width="27.428" height="27.4286" filterUnits="userSpaceOnUse" color-interpolation-filters="sRGB">
<feFlood flood-opacity="0" result="BackgroundImageFix"/>
<feBlend mode="normal" in="SourceGraphic" in2="BackgroundImageFix" result="shape"/>
<feGaussianBlur stdDeviation="2.28571" result="effect1_foregroundBlur_57_445"/>
</filter>
<filter id="filter1_f_57_445" x="23.4286" y="71.4286" width="27.428" height="27.4286" filterUnits="userSpaceOnUse" color-interpolation-filters="sRGB">
<feFlood flood-opacity="0" result="BackgroundImageFix"/>
<feBlend mode="normal" in="SourceGraphic" in2="BackgroundImageFix" result="shape"/>
<feGaussianBlur stdDeviation="2.28571" result="effect1_foregroundBlur_57_445"/>
</filter>
<linearGradient id="paint0_linear_57_445" x1="44" y1="-16.5" x2="129" y2="59.5" gradientUnits="userSpaceOnUse">
<stop stop-color="white" stop-opacity="0.84"/>
<stop offset="1" stop-color="white" stop-opacity="0"/>
</linearGradient>
<linearGradient id="paint1_linear_57_445" x1="82.035" y1="49.6129" x2="82.035" y2="101.441" gradientUnits="userSpaceOnUse">
<stop stop-color="white"/>
<stop offset="0.932873" stop-color="white" stop-opacity="0"/>
</linearGradient>
<linearGradient id="paint2_linear_57_445" x1="53.8174" y1="34.6179" x2="53.8174" y2="86.3866" gradientUnits="userSpaceOnUse">
<stop stop-color="white"/>
<stop offset="1" stop-color="white" stop-opacity="0"/>
</linearGradient>
<clipPath id="clip0_57_445">
<rect width="80" height="80" fill="white" transform="translate(28 28)"/>
</clipPath>
</defs>
</svg>
