<svg width="16" height="16" viewBox="0 0 16 16" fill="none" xmlns="http://www.w3.org/2000/svg">
	<g clip-path="url(#clip0_189_6584)">
		<path d="M11.332 2.0001C11.5018 1.79946 11.7118 1.63614 11.9487 1.52055C12.1856 1.40497 12.4441 1.33966 12.7078 1.32878C12.9715 1.31789 13.2346 1.36169 13.4803 1.45736C13.726 1.55303 13.9489 1.69848 14.1349 1.88445C14.3209 2.07041 14.4658 2.29281 14.5604 2.53746C14.655 2.78211 14.6973 3.04366 14.6844 3.30542C14.6716 3.56718 14.604 3.82342 14.486 4.05781C14.3679 4.2922 14.2019 4.49959 13.9987 4.66677L4.9987 13.6668L1.33203 14.6668L2.33203 11.0001L11.332 2.0001Z" stroke="#88888A" stroke-linecap="round" stroke-linejoin="round"/>
		<path d="M10 3.3335L12.6667 6.00016" stroke="#88888A" stroke-linecap="round" stroke-linejoin="round"/>
	</g>
	<defs>
	<clipPath id="clip0_189_6584">
		<rect width="16" height="16" fill="white"/>
	</clipPath>
	</defs>
</svg>
