<svg width="14" height="14" viewBox="0 0 14 14" fill="none" xmlns="http://www.w3.org/2000/svg">
<g clip-path="url(#clip0_3375_5121)">
<path d="M9.91602 1.74996C10.0646 1.5744 10.2483 1.4315 10.4556 1.33036C10.6629 1.22923 10.8891 1.17208 11.1198 1.16256C11.3505 1.15304 11.5807 1.19135 11.7957 1.27507C12.0107 1.35878 12.2058 1.48605 12.3685 1.64877C12.5312 1.81149 12.658 2.00608 12.7408 2.22016C12.8236 2.43423 12.8606 2.66308 12.8494 2.89212C12.8382 3.12116 12.779 3.34537 12.6757 3.55046C12.5724 3.75555 12.4272 3.93702 12.2493 4.0833L4.37435 11.9583L1.16602 12.8333L2.04102 9.62496L9.91602 1.74996Z" stroke="#88888A" stroke-linecap="round" stroke-linejoin="round"/>
<path d="M9.91602 1.74996C10.0646 1.5744 10.2483 1.4315 10.4556 1.33036C10.6629 1.22923 10.8891 1.17208 11.1198 1.16256C11.3505 1.15304 11.5807 1.19135 11.7957 1.27507C12.0107 1.35878 12.2058 1.48605 12.3685 1.64877C12.5312 1.81149 12.658 2.00608 12.7408 2.22016C12.8236 2.43423 12.8606 2.66308 12.8494 2.89212C12.8382 3.12116 12.779 3.34537 12.6757 3.55046C12.5724 3.75555 12.4272 3.93702 12.2493 4.0833L4.37435 11.9583L1.16602 12.8333L2.04102 9.62496L9.91602 1.74996Z" stroke="black" stroke-opacity="0.2" stroke-linecap="round" stroke-linejoin="round"/>
<path d="M8.75 2.9165L11.0833 5.24984" stroke="#88888A" stroke-linecap="round" stroke-linejoin="round"/>
<path d="M8.75 2.9165L11.0833 5.24984" stroke="black" stroke-opacity="0.2" stroke-linecap="round" stroke-linejoin="round"/>
</g>
<defs>
<clipPath id="clip0_3375_5121">
<rect width="14" height="14" fill="white"/>
</clipPath>
</defs>
</svg>
