<svg width="16" height="16" viewBox="0 0 16 16" fill="none" xmlns="http://www.w3.org/2000/svg">
<path d="M12.6667 2H3.33333C2.59695 2 2 2.59695 2 3.33333V12.6667C2 13.403 2.59695 14 3.33333 14H12.6667C13.403 14 14 13.403 14 12.6667V3.33333C14 2.59695 13.403 2 12.6667 2Z" stroke="white" stroke-linecap="round" stroke-linejoin="round"/>
<path d="M5.99984 7.33332C6.73622 7.33332 7.33317 6.73637 7.33317 5.99999C7.33317 5.26361 6.73622 4.66666 5.99984 4.66666C5.26346 4.66666 4.6665 5.26361 4.6665 5.99999C4.6665 6.73637 5.26346 7.33332 5.99984 7.33332Z" stroke="white" stroke-linecap="round" stroke-linejoin="round"/>
<path d="M14 9.99999L11.9427 7.94266C11.6926 7.6927 11.3536 7.55228 11 7.55228C10.6464 7.55228 10.3074 7.6927 10.0573 7.94266L4 14" stroke="white" stroke-linecap="round" stroke-linejoin="round"/>
</svg>
