<svg width="16" height="16" viewBox="0 0 16 16" fill="none" xmlns="http://www.w3.org/2000/svg">
<path d="M10 3.33334L14.2 7.53334C14.3492 7.68199 14.4675 7.85862 14.5483 8.0531C14.629 8.24758 14.6706 8.45609 14.6706 8.66668C14.6706 8.87726 14.629 9.08577 14.5483 9.28025C14.4675 9.47474 14.3492 9.65136 14.2 9.80001L11.3333 12.6667" stroke="white" stroke-linecap="round" stroke-linejoin="round"/>
<path d="M6.39083 3.72401C6.14084 3.47394 5.80176 3.33342 5.44816 3.33334H2.00016C1.82335 3.33334 1.65378 3.40358 1.52876 3.52861C1.40373 3.65363 1.3335 3.8232 1.3335 4.00001V7.44801C1.33357 7.8016 1.4741 8.14069 1.72416 8.39068L5.52683 12.1933C5.82984 12.4944 6.23966 12.6634 6.66683 12.6634C7.094 12.6634 7.50382 12.4944 7.80683 12.1933L10.1935 9.80668C10.4946 9.50367 10.6636 9.09385 10.6636 8.66668C10.6636 8.23951 10.4946 7.82969 10.1935 7.52668L6.39083 3.72401Z" stroke="white" stroke-linecap="round" stroke-linejoin="round"/>
<path d="M4.33333 6.66667C4.51743 6.66667 4.66667 6.51743 4.66667 6.33333C4.66667 6.14924 4.51743 6 4.33333 6C4.14924 6 4 6.14924 4 6.33333C4 6.51743 4.14924 6.66667 4.33333 6.66667Z" fill="black" stroke="white" stroke-linecap="round" stroke-linejoin="round"/>
</svg>
