<svg width="16" height="16" viewBox="0 0 16 16" fill="none" xmlns="http://www.w3.org/2000/svg">
	<path d="M11.9987 5.33317V3.99984C11.9987 3.64622 11.8582 3.30708 11.6082 3.05703C11.3581 2.80698 11.019 2.6665 10.6654 2.6665H2.66536C2.31174 2.6665 1.9726 2.80698 1.72256 3.05703C1.47251 3.30708 1.33203 3.64622 1.33203 3.99984V8.6665C1.33203 9.02013 1.47251 9.35926 1.72256 9.60931C1.9726 9.85936 2.31174 9.99984 2.66536 9.99984H7.9987" stroke="white" stroke-linecap="round" stroke-linejoin="round"/>
	<path d="M6.66797 12.6666V10.0266V12.1266" stroke="white" stroke-linecap="round" stroke-linejoin="round"/>
	<path d="M4.66797 12.6665H8.0013" stroke="white" stroke-linecap="round" stroke-linejoin="round"/>
	<path d="M13.3346 8H12.0013C11.2649 8 10.668 8.59695 10.668 9.33333V13.3333C10.668 14.0697 11.2649 14.6667 12.0013 14.6667H13.3346C14.071 14.6667 14.668 14.0697 14.668 13.3333V9.33333C14.668 8.59695 14.071 8 13.3346 8Z" stroke="white" stroke-linecap="round" stroke-linejoin="round"/>
</svg>
