<svg width="190" height="30" viewBox="0 0 190 30" fill="none" xmlns="http://www.w3.org/2000/svg">
	<path d="M189.926 30H176.585V0.850586L181.984 0.850586V24.6191H189.926V30Z" fill="white"/>
	<path d="M173.969 30H168.569V0.850586L173.969 0.850586V30Z" fill="white"/>
	<path d="M156.694 17.6611C157.498 14.0615 158.129 11.2103 158.587 9.10742C159.057 7.00456 159.675 4.25228 160.442 0.850586L165.953 0.850586L159.459 30H153.93L147.417 0.850586L152.946 0.850586C153.701 4.26465 154.307 7.02311 154.765 9.12598C155.235 11.2165 155.878 14.0615 156.694 17.6611Z" fill="white"/>
	<path d="M144.801 30H130.755V0.850586L144.689 0.850586V6.23145L136.136 6.23145V12.7256H143.502V18.125H136.136V24.6191H144.801V30Z" fill="white"/>
	<path d="M113.499 30V24.6191H118.88V30H113.499Z" fill="white"/>
	<path d="M110.883 26.957L107.45 30H98.1543L94.6846 26.957V22.2627H100.065V24.6191H105.502V18.125H98.1543L94.6846 15.0635V3.91211L98.1543 0.850586L107.45 0.850586L110.883 3.89355V8.4209H105.502V6.23145L100.065 6.23145V12.7256H107.45L110.883 15.7871V26.957Z" fill="white"/>
	<path d="M82.8096 17.6611C83.6136 14.0615 84.2445 11.2103 84.7021 9.10742C85.1722 7.00456 85.7907 4.25228 86.5576 0.850586L92.0684 0.850586L85.5742 30H80.0449L73.5322 0.850586L79.0615 0.850586C79.8161 4.26465 80.4222 7.02311 80.8799 9.12598C81.3499 11.2165 81.9932 14.0615 82.8096 17.6611Z" fill="white"/>
	<path d="M55.8682 30L49.9863 14.7295V30H44.624V0.850586L50.3945 0.850586L56.2949 16.1396V0.850586L61.6387 0.850586V29.9629L61.6572 30H55.8682Z" fill="white"/>
	<path d="M36.5342 30L35.2354 23.5059H29.5947L28.2959 30H22.8037L28.6299 0.850586L36.2002 0.850586L42.0264 30H36.5342ZM34.1592 18.125L32.415 9.4043L30.6709 18.125H34.1592Z" fill="white"/>
	<path d="M20.2061 30H14.8066L14.8066 13.5791L10.1123 23.5986L5.43652 13.5791L5.43652 30H0.0556641L0.0556641 0.850586L5.43652 0.850586L10.1123 10.8701L14.8066 0.850586L20.2061 0.850586L20.2061 30Z" fill="white"/>
</svg>
