<svg xmlns="http://www.w3.org/2000/svg" width="51" height="18" viewBox="0 0 51 18" fill="none">
<path fill-rule="evenodd" clip-rule="evenodd" d="M18.4123 0.365217C18.4358 0.170435 18.5842 0 18.8545 0H19.2465C19.4441 0 19.5905 0.0973913 19.6652 0.243478L25.0699 11.7367H25.1436L30.5484 0.243478C30.6231 0.0973913 30.7459 0 30.967 0H31.3591C31.6304 0 31.7778 0.170435 31.8023 0.365217L34.7012 16.728C34.7749 17.0688 34.5784 17.289 34.259 17.289H32.0234C31.8023 17.289 31.6058 17.0932 31.5567 16.9228L30.1072 7.69493H30.0335L25.7332 17.2636C25.6841 17.4097 25.5367 17.5325 25.3156 17.5325H24.8734C24.6533 17.5325 24.5305 17.4097 24.4558 17.2636L20.1074 7.69493H20.0337L18.6078 16.9228C18.5842 17.0932 18.3877 17.289 18.1666 17.289H15.9556C15.6352 17.289 15.4397 17.0688 15.4888 16.728L18.4123 0.365217Z" fill="white"/>
<path d="M3.67584 6.97575L0 5.87604L2.74537 8.66488L0 11.4578L3.67584 10.3581L4.60734 14.2456L5.5368 10.3581L9.21264 11.4578L6.47034 8.66488L9.21264 5.87604L5.5368 6.97575L4.60734 3.08517L3.67584 6.97575Z" fill="white"/>
<path d="M44.6769 6.89058L41 5.79087L43.7443 8.57971L41 11.3726L44.6769 10.2729L45.6073 14.1604L46.5378 10.2729L50.2126 11.3726L47.4693 8.57971L50.2126 5.79087L46.5378 6.89058L45.6073 3L44.6769 6.89058Z" fill="white"/>
</svg>