<svg width="44" height="40" viewBox="0 0 44 40" fill="none" xmlns="http://www.w3.org/2000/svg">
<g clip-path="url(#clip0_2204_7381)">
<path d="M36.5592 30.0924L33.2866 26.2426L13.738 3.23332C13.4101 2.85949 12.8876 2.19927 12.1858 1.24392C11.8536 0.745477 11.6043 0.413182 11.4404 0.249221C11.272 0.0852599 11.0228 0 10.6949 0C9.98877 0 9.38758 0.0196754 8.88913 0.0590261L4.91034 0.124611C3.91564 0.124611 3.15049 0.104935 2.61269 0.0590261L0.124855 0C0.0395949 0 0.000244141 0.124611 0.000244141 0.373832C0.000244141 0.623053 0.0395949 0.747664 0.124855 0.747664C1.11955 0.747664 2.08365 0.996885 3.01495 1.49314C3.95062 1.99158 4.9956 2.86167 6.15426 4.1034L7.33697 5.367L36.9921 39.9169C37.0774 40.0022 37.2216 40.0219 37.4293 39.976C37.6326 39.9366 37.7376 39.8513 37.7376 39.7267V31.4849L36.5592 30.0924Z" fill="black"/>
<path d="M43.0843 0.373832C43.0843 0.623053 43.0449 0.747664 42.9597 0.747664C41.3026 0.747664 40.0193 1.34011 39.1055 2.51845C38.1961 3.70334 37.737 5.38886 37.737 7.58594V28.8637L36.5586 27.4712V7.58594C36.5586 5.38668 36.1214 3.70115 35.2513 2.51845C34.3812 1.34011 32.641 0.747664 31.0233 0.747664C30.9446 0.747664 30.8987 0.623053 30.8987 0.373832C30.8987 0.124611 30.9424 0 31.0233 0L33.5745 0.0590261C34.8972 0.144286 35.9968 0.183637 36.8669 0.183637C37.737 0.183637 38.8169 0.144286 40.2248 0.0590261L42.9597 0C43.0449 0 43.0843 0.124611 43.0843 0.373832Z" fill="black"/>
<path d="M13.0532 39.6267C13.0532 39.8759 13.0095 40.0006 12.9286 40.0006C11.8093 40.0006 10.9589 39.9809 10.3774 39.9415L7.08501 39.8759L3.41446 39.9415C2.75206 39.9809 1.79889 40.0006 0.554975 40.0006C0.430364 40.0006 0.371338 39.8759 0.371338 39.6267C0.371338 39.3775 0.430364 39.2529 0.554975 39.2529C2.34106 39.2529 3.71833 38.6758 4.69336 37.5127C5.66401 36.3541 6.15152 34.6773 6.15152 32.478V7.36133L7.33423 8.73642V32.478C7.33423 34.6773 7.76709 36.3519 8.63717 37.5127C9.50726 38.6758 11.2693 39.2529 12.9308 39.2529C13.0095 39.2529 13.0554 39.3775 13.0554 39.6267H13.0532Z" fill="black"/>
</g>
<defs>
<clipPath id="clip0_2204_7381">
<rect width="43.0847" height="40" fill="white"/>
</clipPath>
</defs>
</svg>
