<svg width="14" height="14" viewBox="0 0 14 14" fill="none" xmlns="http://www.w3.org/2000/svg">
<path d="M7.58268 1.75H2.33268C2.02326 1.75 1.72652 1.87292 1.50772 2.09171C1.28893 2.3105 1.16602 2.60725 1.16602 2.91667V8.75C1.16602 9.05942 1.28893 9.35617 1.50772 9.57496C1.72652 9.79375 2.02326 9.91667 2.33268 9.91667H11.666C11.9754 9.91667 12.2722 9.79375 12.491 9.57496C12.7098 9.35617 12.8327 9.05942 12.8327 8.75V7" stroke="#88888A" stroke-linecap="round" stroke-linejoin="round"/>
<path d="M7.58268 1.75H2.33268C2.02326 1.75 1.72652 1.87292 1.50772 2.09171C1.28893 2.3105 1.16602 2.60725 1.16602 2.91667V8.75C1.16602 9.05942 1.28893 9.35617 1.50772 9.57496C1.72652 9.79375 2.02326 9.91667 2.33268 9.91667H11.666C11.9754 9.91667 12.2722 9.79375 12.491 9.57496C12.7098 9.35617 12.8327 9.05942 12.8327 8.75V7" stroke="black" stroke-opacity="0.2" stroke-linecap="round" stroke-linejoin="round"/>
<path d="M4.66602 12.25H9.33268" stroke="#88888A" stroke-linecap="round" stroke-linejoin="round"/>
<path d="M4.66602 12.25H9.33268" stroke="black" stroke-opacity="0.2" stroke-linecap="round" stroke-linejoin="round"/>
<path d="M7 9.91675V12.2501" stroke="#88888A" stroke-linecap="round" stroke-linejoin="round"/>
<path d="M7 9.91675V12.2501" stroke="black" stroke-opacity="0.2" stroke-linecap="round" stroke-linejoin="round"/>
<path d="M9.91602 4.66667L12.8327 1.75" stroke="#88888A" stroke-linecap="round" stroke-linejoin="round"/>
<path d="M9.91602 4.66667L12.8327 1.75" stroke="black" stroke-opacity="0.2" stroke-linecap="round" stroke-linejoin="round"/>
<path d="M9.91602 1.75H12.8327V4.66667" stroke="#88888A" stroke-linecap="round" stroke-linejoin="round"/>
<path d="M9.91602 1.75H12.8327V4.66667" stroke="black" stroke-opacity="0.2" stroke-linecap="round" stroke-linejoin="round"/>
</svg>
