<svg width="16" height="16" viewBox="0 0 16 16" fill="none" xmlns="http://www.w3.org/2000/svg">
	<path d="M2.66406 1.33301V14.6663L3.9974 13.9997L5.33073 14.6663L6.66406 13.9997L7.9974 14.6663L9.33073 13.9997L10.6641 14.6663L11.9974 13.9997L13.3307 14.6663V1.33301L11.9974 1.99967L10.6641 1.33301L9.33073 1.99967L7.9974 1.33301L6.66406 1.99967L5.33073 1.33301L3.9974 1.99967L2.66406 1.33301Z" stroke="white" stroke-linecap="round" stroke-linejoin="round"/>
	<path d="M10.6693 5.33301H6.66927C6.31565 5.33301 5.97651 5.47348 5.72646 5.72353C5.47641 5.97358 5.33594 6.31272 5.33594 6.66634C5.33594 7.01996 5.47641 7.3591 5.72646 7.60915C5.97651 7.8592 6.31565 7.99967 6.66927 7.99967H9.33594C9.68956 7.99967 10.0287 8.14015 10.2787 8.3902C10.5288 8.64025 10.6693 8.97939 10.6693 9.33301C10.6693 9.68663 10.5288 10.0258 10.2787 10.2758C10.0287 10.5259 9.68956 10.6663 9.33594 10.6663H5.33594" stroke="white" stroke-linecap="round" stroke-linejoin="round"/>
	<path d="M8 11.3334V4.66669" stroke="white" stroke-linecap="round" stroke-linejoin="round"/>
</svg>
