<svg width="16" height="16" viewBox="0 0 16 16" fill="none" xmlns="http://www.w3.org/2000/svg">
	<path d="M1.33594 5V3.33333C1.33594 2.6 1.93594 2 2.66927 2H5.28927C5.50888 2.00114 5.72481 2.0565 5.91787 2.16117C6.11093 2.26585 6.27515 2.41659 6.39594 2.6L6.9426 3.4C7.06339 3.58341 7.22761 3.73415 7.42067 3.83883C7.61373 3.9435 7.82966 3.99886 8.04927 4H13.3359C13.6896 4 14.0287 4.14048 14.2787 4.39052C14.5288 4.64057 14.6693 4.97971 14.6693 5.33333V12C14.6693 12.3536 14.5288 12.6928 14.2787 12.9428C14.0287 13.1929 13.6896 13.3333 13.3359 13.3333H1.33594" stroke="white" stroke-linecap="round" stroke-linejoin="round"/>
	<path d="M1.33594 8.6665H8.0026" stroke="white" stroke-linecap="round" stroke-linejoin="round"/>
	<path d="M3.33594 6.6665L1.33594 8.6665L3.33594 10.6665" stroke="white" stroke-linecap="round" stroke-linejoin="round"/>
</svg>
