<svg width="22" height="22" viewBox="0 0 22 22" fill="none" xmlns="http://www.w3.org/2000/svg">
<path d="M11.2022 1.83301H10.7988C10.3126 1.83301 9.84628 2.02616 9.50246 2.36998C9.15864 2.7138 8.96549 3.18011 8.96549 3.66634V3.83134C8.96516 4.15284 8.88029 4.4686 8.7194 4.74694C8.55851 5.02529 8.32725 5.25643 8.04882 5.41717L7.65466 5.64634C7.37596 5.80725 7.05981 5.89196 6.73799 5.89196C6.41617 5.89196 6.10003 5.80725 5.82132 5.64634L5.68382 5.57301C5.26313 5.33033 4.76334 5.2645 4.29416 5.38996C3.82498 5.51542 3.42475 5.82192 3.18132 6.24217L2.97966 6.59051C2.73698 7.0112 2.67115 7.51099 2.79661 7.98017C2.92206 8.44936 3.22856 8.84959 3.64882 9.09301L3.78632 9.18468C4.06341 9.34464 4.29381 9.57434 4.45462 9.85094C4.61543 10.1275 4.70106 10.4414 4.70299 10.7613V11.2288C4.70427 11.5519 4.62017 11.8695 4.4592 12.1496C4.29822 12.4297 4.0661 12.6623 3.78632 12.8238L3.64882 12.9063C3.22856 13.1498 2.92206 13.55 2.79661 14.0192C2.67115 14.4884 2.73698 14.9882 2.97966 15.4088L3.18132 15.7572C3.42475 16.1774 3.82498 16.4839 4.29416 16.6094C4.76334 16.7349 5.26313 16.669 5.68382 16.4263L5.82132 16.353C6.10003 16.1921 6.41617 16.1074 6.73799 16.1074C7.05981 16.1074 7.37596 16.1921 7.65466 16.353L8.04882 16.5822C8.32725 16.7429 8.55851 16.9741 8.7194 17.2524C8.88029 17.5308 8.96516 17.8465 8.96549 18.168V18.333C8.96549 18.8192 9.15864 19.2856 9.50246 19.6294C9.84628 19.9732 10.3126 20.1663 10.7988 20.1663H11.2022C11.6884 20.1663 12.1547 19.9732 12.4985 19.6294C12.8423 19.2856 13.0355 18.8192 13.0355 18.333V18.168C13.0358 17.8465 13.1207 17.5308 13.2816 17.2524C13.4425 16.9741 13.6737 16.7429 13.9522 16.5822L14.3463 16.353C14.625 16.1921 14.9412 16.1074 15.263 16.1074C15.5848 16.1074 15.901 16.1921 16.1797 16.353L16.3172 16.4263C16.7378 16.669 17.2376 16.7349 17.7068 16.6094C18.176 16.4839 18.5762 16.1774 18.8197 15.7572L19.0213 15.3997C19.264 14.979 19.3298 14.4792 19.2044 14.01C19.0789 13.5408 18.7724 13.1406 18.3522 12.8972L18.2147 12.8238C17.9349 12.6623 17.7028 12.4297 17.5418 12.1496C17.3808 11.8695 17.2967 11.5519 17.298 11.2288V10.7705C17.2967 10.4475 17.3808 10.1298 17.5418 9.84971C17.7028 9.56962 17.9349 9.33703 18.2147 9.17551L18.3522 9.09301C18.7724 8.84959 19.0789 8.44936 19.2044 7.98017C19.3298 7.51099 19.264 7.0112 19.0213 6.59051L18.8197 6.24217C18.5762 5.82192 18.176 5.51542 17.7068 5.38996C17.2376 5.2645 16.7378 5.33033 16.3172 5.57301L16.1797 5.64634C15.901 5.80725 15.5848 5.89196 15.263 5.89196C14.9412 5.89196 14.625 5.80725 14.3463 5.64634L13.9522 5.41717C13.6737 5.25643 13.4425 5.02529 13.2816 4.74694C13.1207 4.4686 13.0358 4.15284 13.0355 3.83134V3.66634C13.0355 3.18011 12.8423 2.7138 12.4985 2.36998C12.1547 2.02616 11.6884 1.83301 11.2022 1.83301Z" stroke="#88888A" stroke-linecap="round" stroke-linejoin="round"/>
<path d="M11 13.75C12.5188 13.75 13.75 12.5188 13.75 11C13.75 9.48122 12.5188 8.25 11 8.25C9.48122 8.25 8.25 9.48122 8.25 11C8.25 12.5188 9.48122 13.75 11 13.75Z" stroke="#88888A" stroke-linecap="round" stroke-linejoin="round"/>
</svg>
