<svg width="22" height="22" viewBox="0 0 22 22" fill="none" xmlns="http://www.w3.org/2000/svg">
<path d="M19.4455 14.5659C18.8623 15.945 17.9502 17.1603 16.7889 18.1054C15.6275 19.0506 14.2523 19.6969 12.7835 19.9878C11.3147 20.2787 9.79703 20.2054 8.36311 19.7742C6.92919 19.3431 5.62271 18.5672 4.55791 17.5145C3.4931 16.4618 2.70239 15.1643 2.25489 13.7354C1.80739 12.3065 1.71674 10.7897 1.99086 9.31765C2.26497 7.84562 2.89551 6.46315 3.82735 5.2911C4.75919 4.11905 5.96395 3.19311 7.33631 2.59424" stroke="white" stroke-linecap="round" stroke-linejoin="round"/>
<path d="M20.1667 11C20.1667 9.79623 19.9296 8.60423 19.4689 7.49208C19.0082 6.37993 18.333 5.3694 17.4818 4.5182C16.6306 3.66699 15.6201 2.99178 14.5079 2.53111C13.3958 2.07045 12.2038 1.83334 11 1.83334V11H20.1667Z" stroke="white" stroke-linecap="round" stroke-linejoin="round"/>
</svg>
