<svg width="22" height="22" viewBox="0 0 22 22" fill="none" xmlns="http://www.w3.org/2000/svg">
<path d="M5.5 1.83331L2.75 5.49998V18.3333C2.75 18.8195 2.94315 19.2859 3.28697 19.6297C3.63079 19.9735 4.0971 20.1666 4.58333 20.1666H17.4167C17.9029 20.1666 18.3692 19.9735 18.713 19.6297C19.0568 19.2859 19.25 18.8195 19.25 18.3333V5.49998L16.5 1.83331H5.5Z" stroke="#88888A" stroke-linecap="round" stroke-linejoin="round"/>
<path d="M2.75 5.5H19.25" stroke="#88888A" stroke-linecap="round" stroke-linejoin="round"/>
<path d="M14.6693 9.1665C14.6693 10.139 14.283 11.0716 13.5953 11.7592C12.9077 12.4469 11.9751 12.8332 11.0026 12.8332C10.0301 12.8332 9.09751 12.4469 8.40988 11.7592C7.72225 11.0716 7.33594 10.139 7.33594 9.1665" stroke="#88888A" stroke-linecap="round" stroke-linejoin="round"/>
</svg>
