<svg width="22" height="22" viewBox="0 0 22 22" fill="none" xmlns="http://www.w3.org/2000/svg">
<path d="M9.16671 1.83331V8.73306C9.16697 9.01816 9.10075 9.29938 8.97329 9.5544L4.32671 18.8375C4.25604 18.9777 4.22258 19.1338 4.22954 19.2906C4.2365 19.4475 4.28365 19.6 4.36647 19.7334C4.44928 19.8668 4.56499 19.9768 4.70249 20.0526C4.83999 20.1285 4.99467 20.1677 5.15171 20.1666H16.8484C17.0054 20.1677 17.1601 20.1285 17.2976 20.0526C17.4351 19.9768 17.5508 19.8668 17.6336 19.7334C17.7164 19.6 17.7636 19.4475 17.7705 19.2906C17.7775 19.1338 17.744 18.9777 17.6734 18.8375L13.0268 9.5544C12.8993 9.29938 12.8331 9.01816 12.8334 8.73306V1.83331" stroke="#88888A" stroke-linecap="round" stroke-linejoin="round"/>
<path d="M7.79163 1.83331H14.2083" stroke="#88888A" stroke-linecap="round" stroke-linejoin="round"/>
<path d="M6.41663 14.6667H15.5833" stroke="#88888A" stroke-linecap="round" stroke-linejoin="round"/>
</svg>
