<svg width="16" height="16" viewBox="0 0 16 16" fill="none" xmlns="http://www.w3.org/2000/svg">
<g clip-path="url(#clip0_3070_3528)">
<path d="M6.73242 1.45337C7.56899 1.29028 8.42918 1.29028 9.26575 1.45337" stroke="#88888A" stroke-linecap="round" stroke-linejoin="round"/>
<path d="M6.73242 1.45337C7.56899 1.29028 8.42918 1.29028 9.26575 1.45337" stroke="black" stroke-opacity="0.2" stroke-linecap="round" stroke-linejoin="round"/>
<path d="M11.7324 2.47339C12.4406 2.95223 13.0495 3.56344 13.5258 4.27339" stroke="#88888A" stroke-linecap="round" stroke-linejoin="round"/>
<path d="M11.7324 2.47339C12.4406 2.95223 13.0495 3.56344 13.5258 4.27339" stroke="black" stroke-opacity="0.2" stroke-linecap="round" stroke-linejoin="round"/>
<path d="M14.5469 6.7334C14.71 7.56997 14.71 8.43016 14.5469 9.26673" stroke="#88888A" stroke-linecap="round" stroke-linejoin="round"/>
<path d="M14.5469 6.7334C14.71 7.56997 14.71 8.43016 14.5469 9.26673" stroke="black" stroke-opacity="0.2" stroke-linecap="round" stroke-linejoin="round"/>
<path d="M13.5266 11.7334C13.0477 12.4416 12.4365 13.0505 11.7266 13.5267" stroke="#88888A" stroke-linecap="round" stroke-linejoin="round"/>
<path d="M13.5266 11.7334C13.0477 12.4416 12.4365 13.0505 11.7266 13.5267" stroke="black" stroke-opacity="0.2" stroke-linecap="round" stroke-linejoin="round"/>
<path d="M9.26575 14.5466C8.42917 14.7095 7.56901 14.7095 6.73242 14.5466" stroke="#88888A" stroke-linecap="round" stroke-linejoin="round"/>
<path d="M9.26575 14.5466C8.42917 14.7095 7.56901 14.7095 6.73242 14.5466" stroke="black" stroke-opacity="0.2" stroke-linecap="round" stroke-linejoin="round"/>
<path d="M4.26794 13.5268C3.55976 13.048 2.95081 12.4368 2.47461 11.7268" stroke="#88888A" stroke-linecap="round" stroke-linejoin="round"/>
<path d="M4.26794 13.5268C3.55976 13.048 2.95081 12.4368 2.47461 11.7268" stroke="black" stroke-opacity="0.2" stroke-linecap="round" stroke-linejoin="round"/>
<path d="M1.45239 9.26673C1.28931 8.43016 1.28931 7.56997 1.45239 6.7334" stroke="#88888A" stroke-linecap="round" stroke-linejoin="round"/>
<path d="M1.45239 9.26673C1.28931 8.43016 1.28931 7.56997 1.45239 6.7334" stroke="black" stroke-opacity="0.2" stroke-linecap="round" stroke-linejoin="round"/>
<path d="M2.47461 4.26672C2.95345 3.55854 3.56466 2.94959 4.27461 2.47339" stroke="#88888A" stroke-linecap="round" stroke-linejoin="round"/>
<path d="M2.47461 4.26672C2.95345 3.55854 3.56466 2.94959 4.27461 2.47339" stroke="black" stroke-opacity="0.2" stroke-linecap="round" stroke-linejoin="round"/>
</g>
<defs>
<clipPath id="clip0_3070_3528">
<rect width="16" height="16" fill="white"/>
</clipPath>
</defs>
</svg>
