<svg width="16" height="16" viewBox="0 0 16 16" fill="none" xmlns="http://www.w3.org/2000/svg">
<g clip-path="url(#clip0_3070_3537)">
<path d="M6.73242 1.45337C7.56899 1.29028 8.42918 1.29028 9.26575 1.45337" stroke="white" stroke-linecap="round" stroke-linejoin="round"/>
<path d="M11.7324 2.47314C12.4406 2.95198 13.0495 3.56319 13.5258 4.27314" stroke="white" stroke-linecap="round" stroke-linejoin="round"/>
<path d="M14.5469 6.7334C14.71 7.56997 14.71 8.43016 14.5469 9.26673" stroke="white" stroke-linecap="round" stroke-linejoin="round"/>
<path d="M13.5266 11.7334C13.0477 12.4416 12.4365 13.0505 11.7266 13.5267" stroke="white" stroke-linecap="round" stroke-linejoin="round"/>
<path d="M9.26575 14.5464C8.42917 14.7093 7.56901 14.7093 6.73242 14.5464" stroke="white" stroke-linecap="round" stroke-linejoin="round"/>
<path d="M4.26794 13.5266C3.55976 13.0477 2.95081 12.4365 2.47461 11.7266" stroke="white" stroke-linecap="round" stroke-linejoin="round"/>
<path d="M1.45239 9.26673C1.28931 8.43016 1.28931 7.56997 1.45239 6.7334" stroke="white" stroke-linecap="round" stroke-linejoin="round"/>
<path d="M2.47461 4.26648C2.95345 3.5583 3.56466 2.94935 4.27461 2.47314" stroke="white" stroke-linecap="round" stroke-linejoin="round"/>
<path d="M8.00065 8.66683C8.36884 8.66683 8.66732 8.36835 8.66732 8.00016C8.66732 7.63197 8.36884 7.3335 8.00065 7.3335C7.63246 7.3335 7.33398 7.63197 7.33398 8.00016C7.33398 8.36835 7.63246 8.66683 8.00065 8.66683Z" stroke="white" stroke-linecap="round" stroke-linejoin="round"/>
</g>
<defs>
<clipPath id="clip0_3070_3537">
<rect width="16" height="16" fill="white"/>
</clipPath>
</defs>
</svg>
