<svg xmlns="http://www.w3.org/2000/svg" width="16" height="16" viewBox="0 0 16 16" fill="none">
	<path d="M14 8V4.66667H3.33333C2.97971 4.66667 2.64057 4.52619 2.39052 4.27614C2.14048 4.02609 2 3.68696 2 3.33333C2 2.97971 2.14048 2.64057 2.39052 2.39052C2.64057 2.14048 2.97971 2 3.33333 2H12.6667V4.66667" stroke="white" stroke-linecap="round" stroke-linejoin="round" />
	<path d="M2 3.33334V12.6667C2 13.0203 2.14048 13.3594 2.39052 13.6095C2.64057 13.8595 2.97971 14 3.33333 14H14V10.6667" stroke="white" stroke-linecap="round" stroke-linejoin="round" />
	<path d="M11.9974 8C11.6438 8 11.3046 8.14048 11.0546 8.39052C10.8045 8.64057 10.6641 8.97971 10.6641 9.33333C10.6641 9.68696 10.8045 10.0261 11.0546 10.2761C11.3046 10.5262 11.6438 10.6667 11.9974 10.6667H14.6641V8H11.9974Z" stroke="white" stroke-linecap="round" stroke-linejoin="round" />
</svg>