<svg width="14" height="14" viewBox="0 0 14 14" fill="none" xmlns="http://www.w3.org/2000/svg">
	<path d="M1.75 3.5H12.25" stroke="#88888A" stroke-linecap="round" stroke-linejoin="round"/>
	<path d="M1.75 3.5H12.25" stroke="black" stroke-opacity="0.2" stroke-linecap="round" stroke-linejoin="round"/>
	<path d="M11.0846 3.5V11.6667C11.0846 12.25 10.5013 12.8333 9.91797 12.8333H4.08464C3.5013 12.8333 2.91797 12.25 2.91797 11.6667V3.5" stroke="#88888A" stroke-linecap="round" stroke-linejoin="round"/>
	<path d="M11.0846 3.5V11.6667C11.0846 12.25 10.5013 12.8333 9.91797 12.8333H4.08464C3.5013 12.8333 2.91797 12.25 2.91797 11.6667V3.5" stroke="black" stroke-opacity="0.2" stroke-linecap="round" stroke-linejoin="round"/>
	<path d="M4.66797 3.49984V2.33317C4.66797 1.74984 5.2513 1.1665 5.83464 1.1665H8.16797C8.7513 1.1665 9.33464 1.74984 9.33464 2.33317V3.49984" stroke="#88888A" stroke-linecap="round" stroke-linejoin="round"/>
	<path d="M4.66797 3.49984V2.33317C4.66797 1.74984 5.2513 1.1665 5.83464 1.1665H8.16797C8.7513 1.1665 9.33464 1.74984 9.33464 2.33317V3.49984" stroke="black" stroke-opacity="0.2" stroke-linecap="round" stroke-linejoin="round"/>
	<path d="M5.83203 6.4165V9.9165" stroke="#88888A" stroke-linecap="round" stroke-linejoin="round"/>
	<path d="M5.83203 6.4165V9.9165" stroke="black" stroke-opacity="0.2" stroke-linecap="round" stroke-linejoin="round"/>
	<path d="M8.16797 6.4165V9.9165" stroke="#88888A" stroke-linecap="round" stroke-linejoin="round"/>
	<path d="M8.16797 6.4165V9.9165" stroke="black" stroke-opacity="0.2" stroke-linecap="round" stroke-linejoin="round"/>
</svg>
