<svg xmlns="http://www.w3.org/2000/svg" width="20" height="20" viewBox="0 0 20 20" fill="none">
					<path d="M3.33345 12.4159C2.71432 11.7833 2.24726 11.0181 1.96765 10.1783C1.68804 9.33851 1.60321 8.44607 1.71959 7.56862C1.83597 6.69117 2.1505 5.8517 2.63937 5.11382C3.12823 4.37593 3.77861 3.75897 4.54123 3.30966C5.30385 2.86036 6.15873 2.5905 7.04109 2.52052C7.92346 2.45054 8.81018 2.58228 9.63409 2.90575C10.458 3.22923 11.1975 3.73596 11.7966 4.38757C12.3956 5.03917 12.8386 5.81856 13.0918 6.6667H14.5835C15.388 6.66661 16.1713 6.92531 16.8176 7.40457C17.4639 7.88384 17.9389 8.55826 18.1724 9.32821C18.406 10.0982 18.3857 10.9228 18.1146 11.6803C17.8434 12.4379 17.3359 13.0881 16.6668 13.535" stroke="#FFFFFF" stroke-width="1.5" stroke-linecap="round" stroke-linejoin="round"/>
					<path d="M3.33345 12.4159C2.71432 11.7833 2.24726 11.0181 1.96765 10.1783C1.68804 9.33851 1.60321 8.44607 1.71959 7.56862C1.83597 6.69117 2.1505 5.8517 2.63937 5.11382C3.12823 4.37593 3.77861 3.75897 4.54123 3.30966C5.30385 2.86036 6.15873 2.5905 7.04109 2.52052C7.92346 2.45054 8.81018 2.58228 9.63409 2.90575C10.458 3.22923 11.1975 3.73596 11.7966 4.38757C12.3956 5.03917 12.8386 5.81856 13.0918 6.6667H14.5835C15.388 6.66661 16.1713 6.92531 16.8176 7.40457C17.4639 7.88384 17.9389 8.55826 18.1724 9.32821C18.406 10.0982 18.3857 10.9228 18.1146 11.6803C17.8434 12.4379 17.3359 13.0881 16.6668 13.535" stroke="#FFFFFF" stroke-opacity="0.2" stroke-width="1.5" stroke-linecap="round" stroke-linejoin="round"/>
					<path d="M10 10V17.5" stroke="#FFFFFF" stroke-width="1.5" stroke-linecap="round" stroke-linejoin="round"/>
					<path d="M10 10V17.5" stroke="#FFFFFF" stroke-opacity="0.2" stroke-width="1.5" stroke-linecap="round" stroke-linejoin="round"/>
					<path d="M13.3334 13.3333L10.0001 10L6.66675 13.3333" stroke="#FFFFFF" stroke-width="1.5" stroke-linecap="round" stroke-linejoin="round"/>
					<path d="M13.3334 13.3333L10.0001 10L6.66675 13.3333" stroke="#FFFFFF" stroke-opacity="0.2" stroke-width="1.5" stroke-linecap="round" stroke-linejoin="round"/>
				</svg>