<svg width="18" height="18" viewBox="0 0 18 18" fill="none" xmlns="http://www.w3.org/2000/svg">
	<path d="M9 16.4995C13.1421 16.4995 16.5 13.1416 16.5 8.99951C16.5 4.85738 13.1421 1.49951 9 1.49951C4.85786 1.49951 1.5 4.85738 1.5 8.99951C1.5 13.1416 4.85786 16.4995 9 16.4995Z" stroke="white" stroke-linecap="round" stroke-linejoin="round"/>
	<path d="M12 5.99951H7.5C7.10218 5.99951 6.72064 6.15755 6.43934 6.43885C6.15804 6.72016 6 7.10169 6 7.49951C6 7.89734 6.15804 8.27887 6.43934 8.56017C6.72064 8.84148 7.10218 8.99951 7.5 8.99951H10.5C10.8978 8.99951 11.2794 9.15755 11.5607 9.43885C11.842 9.72016 12 10.1017 12 10.4995C12 10.8973 11.842 11.2789 11.5607 11.5602C11.2794 11.8415 10.8978 11.9995 10.5 11.9995H6" stroke="white" stroke-linecap="round" stroke-linejoin="round"/>
	<path d="M9 13.5V4.5" stroke="white" stroke-linecap="round" stroke-linejoin="round"/>
</svg>
