<svg width="44" height="40" viewBox="0 0 44 40" fill="none" xmlns="http://www.w3.org/2000/svg">
<g clip-path="url(#clip0_2301_248)">
<path d="M36.5591 30.0924L33.2865 26.2426L13.7379 3.23332C13.41 2.85949 12.8875 2.19927 12.1857 1.24392C11.8534 0.745477 11.6042 0.413182 11.4402 0.249221C11.2719 0.0852599 11.0227 0 10.6948 0C9.98864 0 9.38745 0.0196754 8.88901 0.0590261L4.91022 0.124611C3.91552 0.124611 3.15037 0.104935 2.61257 0.0590261L0.124733 0C0.0394728 0 0.00012207 0.124611 0.00012207 0.373832C0.00012207 0.623053 0.0394728 0.747664 0.124733 0.747664C1.11943 0.747664 2.08352 0.996885 3.01482 1.49314C3.9505 1.99158 4.99548 2.86167 6.15414 4.1034L7.33684 5.367L36.992 39.9169C37.0772 40.0022 37.2215 40.0219 37.4292 39.976C37.6325 39.9366 37.7375 39.8513 37.7375 39.7267V31.4849L36.5591 30.0924Z" fill="white"/>
<path d="M43.0842 0.373832C43.0842 0.623053 43.0448 0.747664 42.9596 0.747664C41.3024 0.747664 40.0192 1.34011 39.1054 2.51845C38.1959 3.70334 37.7368 5.38886 37.7368 7.58594V28.8637L36.5585 27.4712V7.58594C36.5585 5.38668 36.1213 3.70115 35.2512 2.51845C34.3811 1.34011 32.6409 0.747664 31.0232 0.747664C30.9445 0.747664 30.8986 0.623053 30.8986 0.373832C30.8986 0.124611 30.9423 0 31.0232 0L33.5744 0.0590261C34.897 0.144286 35.9967 0.183637 36.8668 0.183637C37.7368 0.183637 38.8168 0.144286 40.2247 0.0590261L42.9596 0C43.0448 0 43.0842 0.124611 43.0842 0.373832Z" fill="white"/>
<path d="M13.0531 39.6267C13.0531 39.8759 13.0094 40.0006 12.9285 40.0006C11.8092 40.0006 10.9587 39.9809 10.3772 39.9415L7.08488 39.8759L3.41434 39.9415C2.75193 39.9809 1.79877 40.0006 0.554852 40.0006C0.430242 40.0006 0.371216 39.8759 0.371216 39.6267C0.371216 39.3775 0.430242 39.2529 0.554852 39.2529C2.34094 39.2529 3.71821 38.6758 4.69324 37.5127C5.66389 36.3541 6.1514 34.6773 6.1514 32.478V7.36133L7.33411 8.73642V32.478C7.33411 34.6773 7.76696 36.3519 8.63705 37.5127C9.50714 38.6758 11.2692 39.2529 12.9307 39.2529C13.0094 39.2529 13.0553 39.3775 13.0553 39.6267H13.0531Z" fill="white"/>
</g>
<defs>
<clipPath id="clip0_2301_248">
<rect width="43.0847" height="40" fill="white"/>
</clipPath>
</defs>
</svg>
