<svg width="16" height="16" viewBox="0 0 16 16" fill="none" xmlns="http://www.w3.org/2000/svg">
<path d="M6.66667 7.33333C8.13943 7.33333 9.33333 6.13943 9.33333 4.66667C9.33333 3.19391 8.13943 2 6.66667 2C5.19391 2 4 3.19391 4 4.66667C4 6.13943 5.19391 7.33333 6.66667 7.33333Z" stroke="white" stroke-linecap="round" stroke-linejoin="round"/>
<path d="M6.86667 10H4.66667C3.95942 10 3.28115 10.281 2.78105 10.781C2.28095 11.2811 2 11.9594 2 12.6667V14" stroke="white" stroke-linecap="round" stroke-linejoin="round"/>
<path d="M11.333 13.3334C12.4376 13.3334 13.333 12.4379 13.333 11.3334C13.333 10.2288 12.4376 9.33337 11.333 9.33337C10.2284 9.33337 9.33301 10.2288 9.33301 11.3334C9.33301 12.4379 10.2284 13.3334 11.333 13.3334Z" stroke="white" stroke-linecap="round" stroke-linejoin="round"/>
<path d="M14.0001 14L12.7334 12.7333" stroke="white" stroke-linecap="round" stroke-linejoin="round"/>
</svg>
