<svg width="16" height="16" viewBox="0 0 16 16" fill="none" xmlns="http://www.w3.org/2000/svg">
<g clip-path="url(#clip0_7354_9812)">
<path d="M13.2337 2.24592C13.3116 2.16795 13.4042 2.10611 13.5061 2.06391C13.6079 2.02172 13.7171 2 13.8274 2C13.9376 2 14.0468 2.02172 14.1487 2.06391C14.2506 2.10611 14.3431 2.16795 14.4211 2.24592C14.499 2.32388 14.5609 2.41644 14.6031 2.51831C14.6453 2.62017 14.667 2.72935 14.667 2.83961C14.667 2.94987 14.6453 3.05905 14.6031 3.16092C14.5609 3.26279 14.499 3.35535 14.4211 3.43331L12.2462 5.6002L10.667 6L11.0628 4.42081L13.2337 2.24592Z" stroke="white" stroke-linecap="round" stroke-linejoin="round"/>
<path d="M14.6663 7V10C14.6663 10.3536 14.5259 10.6928 14.2758 10.9428C14.0258 11.1929 13.6866 11.3333 13.333 11.3333H2.66634C2.31272 11.3333 1.97358 11.1929 1.72353 10.9428C1.47348 10.6928 1.33301 10.3536 1.33301 10V3.33333C1.33301 2.97971 1.47348 2.64057 1.72353 2.39052C1.97358 2.14048 2.31272 2 2.66634 2H9.66634" stroke="white" stroke-linecap="round" stroke-linejoin="round"/>
<path d="M8 11.3333V14" stroke="white" stroke-linecap="round" stroke-linejoin="round"/>
<path d="M5.33301 14H10.6663" stroke="white" stroke-linecap="round" stroke-linejoin="round"/>
</g>
<defs>
<clipPath id="clip0_7354_9812">
<rect width="16" height="16" fill="white"/>
</clipPath>
</defs>
</svg>
