<svg width="16" height="16" viewBox="0 0 16 16" fill="none" xmlns="http://www.w3.org/2000/svg">
<g clip-path="url(#clip0_7354_9770)">
<path d="M8 5.33331V10.6666" stroke="white" stroke-linecap="round" stroke-linejoin="round"/>
<path d="M1.80027 6.86661C1.6509 7.01583 1.5324 7.19302 1.45156 7.38806C1.37071 7.58309 1.3291 7.79215 1.3291 8.00328C1.3291 8.21441 1.37071 8.42347 1.45156 8.61851C1.5324 8.81354 1.6509 8.99073 1.80027 9.13995L6.86027 14.1999C7.00948 14.3493 7.18667 14.4678 7.38171 14.5487C7.57674 14.6295 7.7858 14.6711 7.99693 14.6711C8.20806 14.6711 8.41712 14.6295 8.61216 14.5487C8.80719 14.4678 8.98438 14.3493 9.1336 14.1999L14.1936 9.13995C14.343 8.99073 14.4615 8.81354 14.5423 8.61851C14.6232 8.42347 14.6648 8.21441 14.6648 8.00328C14.6648 7.79215 14.6232 7.58309 14.5423 7.38806C14.4615 7.19302 14.343 7.01583 14.1936 6.86661L9.1336 1.80661C8.98438 1.65725 8.80719 1.53875 8.61216 1.45791C8.41712 1.37706 8.20806 1.33545 7.99693 1.33545C7.7858 1.33545 7.57674 1.37706 7.38171 1.45791C7.18667 1.53875 7.00948 1.65725 6.86027 1.80661L1.80027 6.86661Z" stroke="white" stroke-linecap="round" stroke-linejoin="round"/>
<path d="M5.33301 8H10.6663" stroke="white" stroke-linecap="round" stroke-linejoin="round"/>
</g>
<defs>
<clipPath id="clip0_7354_9770">
<rect width="16" height="16" fill="white"/>
</clipPath>
</defs>
</svg>
