<svg width="16" height="16" viewBox="0 0 16 16" fill="none" xmlns="http://www.w3.org/2000/svg">
<path d="M4 1.33331L2 3.99998V13.3333C2 13.6869 2.14048 14.0261 2.39052 14.2761C2.64057 14.5262 2.97971 14.6666 3.33333 14.6666H12.6667C13.0203 14.6666 13.3594 14.5262 13.6095 14.2761C13.8595 14.0261 14 13.6869 14 13.3333V3.99998L12 1.33331H4Z" stroke="white" stroke-linecap="round" stroke-linejoin="round"/>
<path d="M2 4H14" stroke="white" stroke-linecap="round" stroke-linejoin="round"/>
<path d="M10.6683 6.66656C10.6683 7.37381 10.3873 8.05209 9.88725 8.55218C9.38715 9.05228 8.70887 9.33323 8.00163 9.33323C7.29438 9.33323 6.61611 9.05228 6.11601 8.55218C5.61591 8.05209 5.33496 7.37381 5.33496 6.66656" stroke="white" stroke-linecap="round" stroke-linejoin="round"/>
</svg>
