<svg width="32" height="33" viewBox="0 0 32 33" fill="none" xmlns="http://www.w3.org/2000/svg">
    <path d="M26.5002 15.4996C27.8808 15.4996 29 14.3804 29 12.9998C29 11.6192 27.8807 10.5 26.5001 10.5C25.1194 10.5 24 11.6193 24 13V15.4996H26.5002ZM19.5 15.4996C20.8807 15.4996 22 14.3803 22 12.9996V6C22 4.61929 20.8807 3.5 19.5 3.5C18.1193 3.5 17 4.61929 17 6V12.9996C17 14.3803 18.1193 15.4996 19.5 15.4996Z" fill="#2EB67D"/>
    <path d="M5.49979 17.5004C4.11919 17.5004 3 18.6196 3 20.0002C3 21.3808 4.1193 22.5 5.49989 22.5C6.8806 22.5 8 21.3807 8 20V17.5004H5.49979ZM12.5 17.5004C11.1193 17.5004 10 18.6197 10 20.0004V27C10 28.3807 11.1193 29.5 12.5 29.5C13.8807 29.5 15 28.3807 15 27V20.0004C15 18.6197 13.8807 17.5004 12.5 17.5004Z" fill="#E01E5A"/>
    <path d="M17 27.0002C17 28.3808 18.1192 29.5 19.4998 29.5C20.8804 29.5 21.9996 28.3807 21.9996 27.0001C21.9996 25.6194 20.8803 24.5 19.4996 24.5H17V27.0002ZM17 20C17 21.3807 18.1193 22.5 19.5 22.5H26.4996C27.8803 22.5 28.9996 21.3807 28.9996 20C28.9996 18.6193 27.8803 17.5 26.4996 17.5H19.5C18.1193 17.5 17 18.6193 17 20Z" fill="#ECB22E"/>
    <path d="M14.9996 5.99979C14.9996 4.61919 13.8804 3.5 12.4998 3.5C11.1192 3.5 10 4.6193 10 5.99989C10 7.38061 11.1193 8.5 12.5 8.5H14.9996V5.99979ZM14.9996 13C14.9996 11.6193 13.8803 10.5 12.4996 10.5H5.5C4.11929 10.5 3 11.6193 3 13C3 14.3807 4.11929 15.5 5.5 15.5H12.4996C13.8803 15.5 14.9996 14.3807 14.9996 13Z" fill="#36C5F0"/>
</svg>